# xmcd CD database file
#
# Track frame offsets:
#	150
#	45107
#	59872
#	74487
#	89035
#	103367
#	118317
#	130920
#	144027
#	159067
#	172297
#	200957
#
# Disc length: 2879 seconds
#
# Revision: 4
# Processed by: cddbd v1.5.2PL0 Copyright (c) Steve Scherf et al.
# Submitted via: CDex 1.70beta2
#
DISCID=bc0b3d0c
DTITLE=Stan Kenton - New Concepts of Artistry in Rhythm
DYEAR=1953
DGENRE=Jazz
TTITLE0=Prologue (This Is an Orchestra!)
TTITLE1=Portrait of a Count
TTITLE2=Young Blood
TTITLE3=Frank Speaking
TTITLE4=23°N-82°W
TTITLE5=Taboo
TTITLE6=Lonesome Train
TTITLE7=Invention for Guitar and Trumpet
TTITLE8=My Lady
TTITLE9=Swing House
TTITLE10=Improvisation
TTITLE11=You Go to My Head
EXTD=YEAR: 1953
EXTT0=
EXTT1=
EXTT2=
EXTT3=
EXTT4=
EXTT5=
EXTT6=
EXTT7=
EXTT8=
EXTT9=
EXTT10=
EXTT11=
PLAYORDER=
